<svg xmlns="http://www.w3.org/2000/svg" width="24" height="27" viewBox="0 0 24 27">
    <path fill="#FFF" fill-rule="evenodd" d="M22.887 19.3c.492.528.738 1.135.738 1.82 0 .686-.237 1.275-.712 1.767s-1.081.738-1.82.738h-5.905c0 .95-.326 1.749-.976 2.4-.65.65-1.45.975-2.4.975-.949 0-1.749-.325-2.399-.976-.65-.65-.976-1.45-.976-2.399H2.532c-.738 0-1.344-.246-1.82-.738A2.456 2.456 0 0 1 0 21.12c0-.685.264-1.292.791-1.82.527-.527.914-1.001 1.16-1.423.422-.668.756-1.494 1.002-2.479.281-1.195.422-2.671.422-4.43 0-1.37.308-2.654.923-3.849a8.466 8.466 0 0 1 2.531-2.98 8.131 8.131 0 0 1 3.612-1.502 1.543 1.543 0 0 1-.316-.95c0-.457.167-.852.501-1.186.334-.334.73-.501 1.187-.501.457 0 .852.167 1.186.501.334.334.501.73.501 1.187 0 .351-.105.667-.316.949 1.336.21 2.54.712 3.612 1.503a8.466 8.466 0 0 1 2.531 2.98 8.291 8.291 0 0 1 .923 3.849c0 1.758.14 3.234.422 4.43.246.984.58 1.81 1.002 2.478.246.422.65.896 1.213 1.424zm-11.075 5.59a1.22 1.22 0 0 1-.896-.369 1.22 1.22 0 0 1-.37-.896h-.843c0 .598.202 1.099.607 1.503.404.404.905.606 1.502.606a.403.403 0 0 0 .29-.131.403.403 0 0 0 .132-.29.403.403 0 0 0-.131-.29.403.403 0 0 0-.29-.132z"/>
</svg>
