<svg xmlns="http://www.w3.org/2000/svg" width="48" height="55" viewBox="0 0 48 55">
    <g fill="none" fill-rule="evenodd">
        <path fill="#38A948" d="M43.553 15.125v2.79c0 1.781-2.812 1.812-2.812 0v-8.28c0-2.824-4.447-2.862-4.447 0v5.492c0 1.77-2.812 1.808-2.812 0V5.858c0-2.824-4.447-2.861-4.447 0v3.446c0 1.754-2.811 1.842-2.811 0V2.107c0-2.744-4.448-2.873-4.448 0v7.197c0 1.795-2.811 1.812-2.811 0V5.858c0-2.815-4.448-2.865-4.448 0v8.616c0 1.782-2.811 1.815-2.811 0V9.636c0-2.828-4.447-2.858-4.447 0V27.16c0 1.778-2.812 1.813-2.812 0V15.125c0-2.733-4.447-2.858-4.447 0v24.75c0 2.826 4.447 2.863 4.447 0V37.43c0-1.781 2.812-1.813 2.812 0v7.933c0 2.825 4.447 2.863 4.447 0V40.22c0-1.77 2.812-1.808 2.812 0v8.923c0 2.824 4.447 2.861 4.447 0v-3.1c0-1.754 2.811-1.843 2.811 0v6.851c0 2.744 4.448 2.873 4.448 0v-6.852c0-1.794 2.811-1.81 2.811 0v3.1c0 2.816 4.448 2.866 4.448 0v-8.27c0-1.781 2.811-1.814 2.811 0v4.493c0 2.828 4.447 2.858 4.447 0V28.532c0-1.778 2.812-1.813 2.812 0v11.344c0 2.733 4.447 2.858 4.447 0v-24.75c0-2.826-4.447-2.863-4.447 0"/>
        <path fill="#5EB146" d="M24.036 54c-.964.018-1.94-.502-1.94-1.577V45.58c0-2.188-3.559-2.204-3.559 0v3.096c0 2.318-3.805 2.339-3.805 0v-8.911c0-2.12-3.56-2.209-3.56 0v5.139c0 2.32-3.806 2.343-3.806 0V36.98c0-2.193-3.56-2.21-3.56 0v2.44c0 2.292-3.806 2.369-3.806 0V14.704c0-2.217 3.805-2.328 3.805 0v12.019c0 2.197 3.561 2.209 3.561 0V9.222c0-2.29 3.805-2.343 3.805 0v4.832c0 2.198 3.56 2.209 3.56 0V5.448c0-2.246 3.806-2.327 3.806 0V8.89c0 2.192 3.56 2.218 3.56 0V1.702c0-2.248 3.806-2.291 3.806 0v7.189c0 2.167 3.56 2.23 3.56 0V5.449c0-2.315 3.805-2.344 3.805 0v9.256c0 2.202 3.56 2.2 3.56 0V9.222c0-2.253 3.806-2.324 3.806 0v8.268c0 2.202 3.56 2.208 3.56 0v-2.786c0-2.312 3.806-2.344 3.806 0v24.717c0 2.269-3.805 2.294-3.805 0V28.093c0-2.185-3.56-2.208-3.56 0v16.81c0 2.326-3.806 2.34-3.806 0v-4.486c0-2.185-3.56-2.214-3.56 0v8.26c0 2.257-3.806 2.352-3.806 0V45.58c0-2.193-3.56-2.214-3.56 0v6.843c0 1.028-.928 1.558-1.867 1.577"/>
        <path fill="#38A948" d="M22.087 8.417c-.19 2.061-3.55 1.976-3.55-.185V4.74c0-2.36-3.806-2.279-3.806 0v8.73c0 2.241-3.56 2.231-3.56 0V8.568c0-2.378-3.805-2.324-3.805 0v17.757c0 2.24-3.56 2.228-3.56 0V14.13c0-2.362-3.806-2.25-3.806 0v25.078c0 2.403 3.805 2.326 3.805 0v-2.476c0-2.243 3.561-2.225 3.561 0v8.039c0 2.377 3.805 2.353 3.805 0v-5.214c0-2.241 3.56-2.15 3.56 0v9.042c0 2.372 3.806 2.35 3.806 0v-3.142c0-2.236 3.56-2.22 3.56 0V52.4c0 1.091.975 1.618 1.939 1.6.94-.019 1.867-.557 1.867-1.6v-6.943c0-2.247 3.56-2.225 3.56 0v3.142c0 2.387 3.806 2.29 3.806 0v-8.38c0-2.247 3.56-2.218 3.56 0v4.552c0 2.373 3.806 2.36 3.806 0V27.714c0-2.24 3.56-2.216 3.56 0v11.494c0 2.327 3.805 2.302 3.805 0V24.701c-10.961-.882-20.552-7.256-25.913-16.284"/>
        <path fill="#0B8B44" d="M37.956 32.818c-13.092 0-24.582-8-29.705-19.268v13.173c0 2.209-3.505 2.197-3.505 0V14.705c0-2.328-3.746-2.218-3.746 0V39.42c0 2.369 3.746 2.292 3.746 0v-2.44c0-2.21 3.505-2.193 3.505 0v7.923c0 2.343 3.746 2.32 3.746 0v-5.139c0-2.209 3.505-2.12 3.505 0v8.911c0 2.339 3.746 2.318 3.746 0V45.58c0-2.204 3.504-2.188 3.504 0v6.843c0 1.075.96 1.595 1.908 1.577.925-.019 1.839-.55 1.839-1.577V45.58c0-2.214 3.504-2.193 3.504 0v3.096c0 2.353 3.747 2.258 3.747 0v-8.26c0-2.213 3.503-2.184 3.503 0v4.488c0 2.339 3.747 2.325 3.747 0V32.67a32.029 32.029 0 0 1-3.044.147M44 32.023v7.269c0 2.29 4 2.265 4 0V31a36.1 36.1 0 0 1-4 1.023"/>
        <path fill="#137541" d="M30.88 41.542C17.733 41.542 6.187 33.434 1 22v17.126c0 2.417 3.775 2.338 3.775 0v-2.49c0-2.255 3.531-2.237 3.531 0v8.084c0 2.39 3.775 2.366 3.775 0v-5.243c0-2.254 3.532-2.163 3.532 0v9.092c0 2.385 3.774 2.364 3.774 0v-3.16c0-2.248 3.53-2.231 3.53 0v6.982c0 1.097.969 1.628 1.924 1.609.932-.019 1.853-.56 1.853-1.609V45.41c0-2.26 3.53-2.238 3.53 0v3.159c0 2.4 3.776 2.303 3.776 0v-7.182a31.827 31.827 0 0 1-3.12.155M44 38.285v.852c0 2.497 4 2.47 4 0V36a35.043 35.043 0 0 1-4 2.285M37 41.095v4.045c0 2.487 4 2.473 4 0V40a34.339 34.339 0 0 1-4 1.095"/>
        <path fill="#FFFFFE" d="M21.808 17.414l12.59 6.937c2.136 1.177 2.136 4.12 0 5.298l-12.59 6.937C19.67 37.763 17 36.29 17 33.936V20.064c0-2.355 2.67-3.827 4.808-2.65"/>
    </g>
</svg>
