<svg xmlns="http://www.w3.org/2000/svg" width="19" height="20" viewBox="0 0 19 20">
    <path fill="#FFF" fill-rule="evenodd" d="M18.74 16.814c.173.174.26.384.26.631a.859.859 0 0 1-.26.631l-1.039 1.04a.859.859 0 0 1-.63.259.859.859 0 0 1-.632-.26l-3.71-3.71a.859.859 0 0 1-.26-.632v-.593c-1.386 1.088-2.969 1.633-4.75 1.633-1.41 0-2.703-.347-3.878-1.04a7.798 7.798 0 0 1-2.802-2.801C.346 10.797 0 9.504 0 8.094c0-1.41.346-2.703 1.04-3.878a7.798 7.798 0 0 1 2.8-2.802C5.017.721 6.31.375 7.72.375c1.41 0 2.703.346 3.878 1.04a7.798 7.798 0 0 1 2.801 2.8c.693 1.176 1.04 2.469 1.04 3.879 0 1.781-.545 3.364-1.633 4.75h.593c.248 0 .458.086.631.26l3.711 3.71zM7.72 12.844a4.71 4.71 0 0 0 2.393-.631 4.621 4.621 0 0 0 1.726-1.726c.42-.73.63-1.527.63-2.393a4.71 4.71 0 0 0-.63-2.394 4.621 4.621 0 0 0-1.726-1.725 4.71 4.71 0 0 0-2.393-.631 4.71 4.71 0 0 0-2.394.63C4.595 4.396 4.02 4.97 3.6 5.7a4.71 4.71 0 0 0-.631 2.394c0 .866.21 1.663.63 2.393.421.73.996 1.305 1.726 1.726.73.42 1.528.63 2.394.63z"/>
</svg>
